<?xml version="1.0" encoding="utf-8"?>
<!-- Generator: Adobe Illustrator 23.0.1, SVG Export Plug-In . SVG Version: 6.00 Build 0)  -->
<svg version="1.1" id="Capa_1" xmlns="http://www.w3.org/2000/svg" xmlns:xlink="http://www.w3.org/1999/xlink" x="0px" y="0px"
	 viewBox="0 0 117.7 117" style="enable-background:new 0 0 117.7 117;" xml:space="preserve">
<style type="text/css">
	.st0{fill:#FFFFFF;}
</style>
<g>
	<path class="st0" d="M60.6,1.3c2.2,0.3,4.5,0.5,6.7,0.9c9.7,1.6,18.4,5.6,26,11.7c10.7,8.6,17.4,19.6,20.3,33
		c0.5,2.5,0.7,5,1.1,7.5c0,0.4,0.1,0.8,0.2,1.1c0,2.1,0,4.2,0,6.3c-0.2,1.8-0.4,3.6-0.7,5.3c-1.7,11.2-6.3,21.1-13.9,29.6
		c-7.9,8.9-17.6,14.8-29.1,17.5c-3.4,0.8-6.9,1.1-10.4,1.7c-0.3,0.1-0.7,0.1-1,0.2c-1.7,0-3.5,0-5.2,0c-2.4-0.3-4.7-0.5-7.1-0.9
		c-12.4-2.2-23-7.9-31.8-16.9C9.1,91.5,4.5,83.2,2,73.8c-0.1-0.4-0.3-0.8-0.4-1.2c0-0.2,0-0.5,0-0.7c1.2-2.2,2.4-2.6,4.5-1.3
		c3.4,2.1,7,2.8,10.9,2.3c8.6-1.1,14.3-9.4,12.1-17.7c-0.6-2.3,0.5-3.6,2.9-3.2c2.4,0.4,4.8,0.2,7.1-0.5c7.6-2.3,11.7-10.1,9-17.1
		c-1-2.5-0.8-3.2,1.5-4.6c8.5-5.6,9.1-17.5,1.2-23.3c-1.3-1-1.7-1.8-1.3-3c0.4-1.3,1.4-1.7,2.6-1.8c0.8-0.1,1.5-0.2,2.3-0.3
		C56.3,1.3,58.5,1.3,60.6,1.3z M52.4,33.2c1.9,5.9,1.1,11.4-2.9,16.3c-3.9,4.7-9.1,6.8-15.3,6.9c0.6,7.2-1.7,13.1-7.6,17.3
		c-5.7,4.1-12.1,4.7-18.8,2.8c7.4,22.3,30.8,37.5,55.3,34.8c29.4-3.3,48.9-29,47-55.9C108,25.1,82.5,5.7,57.2,6.1
		C64.2,15.7,60.6,27.5,52.4,33.2z"/>
	<path class="st0" d="M30.3,12.1c4.6,0.5,9.1,1,13.6,1.5c1.7,0.2,2.5,1.4,2.1,3.1c-1,4.1-1.9,8.3-2.9,12.4c-0.1,0.5-0.3,1-0.6,1.4
		c-3.6,3.6-8.6,4.8-13,1.4c-3.1-2.4-4.9-5.7-6.1-9.4c-0.6-1.9-0.9-3.8-0.9-5.8c-0.1-2.4,1.3-3.9,3.7-4.2
		C27.5,12.2,28.9,12.2,30.3,12.1C30.3,12.1,30.3,12.1,30.3,12.1z M27.1,16.9c0.1,0.9,0.2,1.6,0.3,2.3c0.6,2.9,1.8,5.6,3.8,7.8
		c2.1,2.4,4.5,2.7,6.8,1c0.3-0.2,0.6-0.5,0.7-0.9c0.7-2.8,1.4-5.5,2-8.3c0.1-0.3,0.1-0.6,0.2-1.1C36.3,17.3,31.8,16.7,27.1,16.9z"/>
	<path class="st0" d="M7,43.3c1.1-2.6,2.5-5.1,4.6-7c2.2-2.1,4.5-1.7,6.2,0.8c0.3,0.5,0.6,0.9,0.8,1.4c1.9,5,3.8,10.1,5.5,15.2
		c0.5,1.6-0.3,2.8-2,3.1c-4.1,0.8-8.2,1.5-12.3,2.4c-1.6,0.4-2.6-0.2-3.6-1.4c-1.3-1.6-1.6-3.5-1.5-5.4C4.8,49.2,5.7,46.2,7,43.3z
		 M14.5,40.3C12,42.1,8.1,51.8,9.7,54.5c3-0.6,6-1.2,9.3-1.8C17.5,48.4,16,44.4,14.5,40.3z"/>
	<path class="st0" d="M44.4,93.5c-5.8,0.1-10.7-4.7-10.7-10.6c0-6,4.7-10.8,10.5-10.8c6,0,10.7,4.7,10.7,10.6
		C55,88.7,50.3,93.4,44.4,93.5z"/>
	<path class="st0" d="M86.6,50.7c5.3,0,9.8,4.3,9.8,9.6c0,5.5-4.3,9.8-9.7,9.9c-5.3,0-9.7-4.3-9.7-9.7
		C76.9,55.1,81.2,50.8,86.6,50.7z"/>
	<path class="st0" d="M62.4,45.3c4.5,0,8,3.6,8,8c0,4.5-3.6,8-8.1,8c-4.5,0-8-3.5-8-8C54.4,48.8,57.9,45.3,62.4,45.3z"/>
	<path class="st0" d="M83.1,83.8c0,3.1-2.6,5.7-5.7,5.7c-3.1,0-5.7-2.6-5.7-5.7c0-3.1,2.5-5.7,5.7-5.7
		C80.5,78.2,83.1,80.7,83.1,83.8z"/>
	<path class="st0" d="M71.2,32.6c0-3.1,2.7-5.7,5.7-5.6c3.1,0,5.7,2.6,5.6,5.7c0,3.2-2.6,5.6-5.7,5.6C73.7,38.3,71.2,35.7,71.2,32.6
		z"/>
</g>
</svg>
