<?xml version="1.0" encoding="utf-8"?>
<!-- Generator: Adobe Illustrator 16.0.0, SVG Export Plug-In . SVG Version: 6.00 Build 0)  -->
<!DOCTYPE svg PUBLIC "-//W3C//DTD SVG 1.1//EN" "http://www.w3.org/Graphics/SVG/1.1/DTD/svg11.dtd">
<svg version="1.1" id="Layer_1" xmlns:sketch="http://www.bohemiancoding.com/sketch/ns"
	 xmlns="http://www.w3.org/2000/svg" xmlns:xlink="http://www.w3.org/1999/xlink" x="0px" y="0px" width="45px" height="45px"
	 viewBox="7.5 7.5 45 45" enable-background="new 7.5 7.5 45 45" xml:space="preserve">
<title></title>
<desc></desc>
<g id="black">
	<g id="slice" transform="translate(-600.000000, 0.000000)">
	</g>
	<g id="linkedin" transform="translate(16.000000, 17.000000)">
		<path fill="#FFFFFF" d="M5.883,26.823V8.524H0.228v18.299H5.883z M5.883,2.038C5.85,0.4,4.758-0.846,2.985-0.846
			c-1.773,0-2.932,1.247-2.932,2.884c0,1.602,1.125,2.885,2.864,2.885h0.034C4.758,4.923,5.883,3.64,5.883,2.038z M15.109,26.823
			V16.397c0-0.558,0.041-1.116,0.205-1.514c0.449-1.116,1.47-2.27,3.184-2.27c2.246,0,3.654,1.275,3.654,3.784v10.426h5.693V16.118
			c0-5.734-3.061-8.402-7.144-8.402c-3.349,0-4.817,1.872-5.634,3.146l0.041-2.447H9.425c0.082,1.751,0,18.409,0,18.409H15.109z"/>
	</g>
</g>
</svg>
