<?xml version="1.0" encoding="utf-8"?>
<!-- Generator: Adobe Illustrator 21.1.0, SVG Export Plug-In . SVG Version: 6.00 Build 0)  -->
<svg version="1.1" id="Capa_1" xmlns="http://www.w3.org/2000/svg" xmlns:xlink="http://www.w3.org/1999/xlink" x="0px" y="0px"
	 viewBox="0 0 185 87.1" style="enable-background:new 0 0 185 87.1;" xml:space="preserve">
<style type="text/css">
	.st0{fill:#1D1D1B;}
	.st1{fill:#00CC77;}
</style>
<g>
	<path class="st0" d="M173.9,33.2c-0.8,0.4-1.4,1-1.8,1.8l-18.7,43.6c-0.4,0.8-0.4,1.7,0,2.5c0.4,0.9,1,1.5,1.8,1.9
		c0.6,0.2,1.1,0.2,1.4,0.2c1.4,0,2.5-0.7,3.1-2l18.6-43.6c0.4-0.8,0.4-1.7,0-2.5s-1-1.5-1.8-1.9C175.6,32.9,174.7,32.9,173.9,33.2
		 M140.9,35.1c-0.4-0.8-1-1.4-1.8-1.8c-0.8-0.4-1.7-0.4-2.5,0c-0.8,0.4-1.4,1-1.8,1.9c-0.4,0.9-0.4,1.7,0,2.5l18.5,43.3
		c0.6,1.3,1.6,1.9,3.1,1.9c0.6,0,1-0.1,1.2-0.2c0.8-0.4,1.4-1,1.8-1.9c0.4-0.9-2.5-8.5-2.9-9.4L140.9,35.1z M122.4,33.9
		c-0.6,0.6-0.9,1.5-0.9,2.4v43.6c0,0.9,0.3,1.7,0.9,2.4c0.6,0.7,1.4,1,2.4,1c0.9,0,1.7-0.3,2.3-1c0.6-0.7,0.9-1.5,0.9-2.4V36.3
		c0-1-0.3-1.8-0.9-2.4c-0.6-0.6-1.4-1-2.3-1C123.8,32.9,123,33.2,122.4,33.9 M8.6,41.5v-32c0-0.9-0.3-1.7-1-2.3
		c-0.6-0.6-1.4-1-2.3-1S3.6,6.6,3,7.2C2.3,7.9,2,8.7,2,9.6V80c0,0.9,0.3,1.7,1,2.3c0.6,0.6,1.4,1,2.3,1s1.7-0.3,2.3-1
		c0.6-0.6,1-1.4,1-2.3v-32h28.2c0.9,0,1.7-0.3,2.3-1c0.6-0.6,1-1.4,1-2.3c0-0.9-0.3-1.7-1-2.3c-0.6-0.6-1.4-1-2.3-1H8.6z M52.5,7.2
		c-0.7,0.6-1,1.4-1,2.3v70.5c0,0.9,0.3,1.7,1,2.3c0.7,0.6,1.4,1,2.3,1s1.7-0.3,2.3-1c0.6-0.6,0.9-1.4,0.9-2.3V9.6
		c0-0.9-0.3-1.7-0.9-2.3c-0.6-0.6-1.4-1-2.3-1C54,6.3,53.2,6.6,52.5,7.2"/>
	<path class="st1" d="M45.9,47.7c1.8,0,3.3-1.5,3.3-3.3c0-1.8-1.5-3.3-3.3-3.3c-1.8,0-3.3,1.5-3.3,3.3
		C42.6,46.2,44.1,47.7,45.9,47.7"/>
	<path class="st0" d="M107.4,58.3c0,10.2-8.4,18.6-18.6,18.6c-10.3,0-18.6-8.3-18.6-18.6c0-10.3,8.4-18.6,18.6-18.6
		C99,39.7,107.4,48,107.4,58.3 M114,80V7.1c0-0.9-0.3-1.7-1-2.3c-0.6-0.6-1.4-1-2.3-1c-1,0-1.8,0.3-2.4,1c-0.6,0.6-1,1.4-1,2.3v34.4
		c-4.6-5.1-11.2-8.3-18.6-8.3c-13.8,0-25.1,11.2-25.1,25.1c0,13.8,11.2,25.1,25.1,25.1c7.4,0,14-3.2,18.6-8.3v5c0,0.9,0.3,1.7,1,2.3
		c0.6,0.6,1.4,1,2.4,1c0.9,0,1.7-0.3,2.3-1C113.7,81.7,114,80.9,114,80"/>
</g>
</svg>
