<?xml version="1.0" encoding="utf-8"?>
<!-- Generator: Adobe Illustrator 16.0.0, SVG Export Plug-In . SVG Version: 6.00 Build 0)  -->
<!DOCTYPE svg PUBLIC "-//W3C//DTD SVG 1.1//EN" "http://www.w3.org/Graphics/SVG/1.1/DTD/svg11.dtd">
<svg version="1.1" id="Layer_1" xmlns:sketch="http://www.bohemiancoding.com/sketch/ns"
	 xmlns="http://www.w3.org/2000/svg" xmlns:xlink="http://www.w3.org/1999/xlink" x="0px" y="0px" width="45px" height="45px"
	 viewBox="7.5 7.5 45 45" enable-background="new 7.5 7.5 45 45" xml:space="preserve">
<title></title>
<desc></desc>
<g id="black">
	<g id="slice">
	</g>
	<g id="twitter" transform="translate(13.000000, 16.000000)">
		<path fill="#FFFFFF" d="M28.053,2.437c-1.209-1.375-2.932-2.25-4.839-2.282c-3.66-0.061-6.628,3.032-6.628,6.908
			c0,0.55,0.059,1.087,0.172,1.602C11.249,8.308,6.364,5.439,3.095,1.115c-0.57,1.036-0.897,2.247-0.897,3.544
			c0,2.456,1.17,4.635,2.949,5.922c-1.086-0.048-2.108-0.377-3.002-0.917C2.144,9.694,2.144,9.724,2.144,9.754
			c0,3.43,2.285,6.307,5.317,6.977c-0.556,0.158-1.142,0.24-1.746,0.236c-0.427-0.002-0.843-0.05-1.248-0.135
			c0.844,2.813,3.292,4.865,6.192,4.933c-2.269,1.883-5.126,3.005-8.232,2.998c-0.535-0.001-1.063-0.036-1.581-0.103
			c2.933,2.014,6.417,3.186,10.161,3.186C23.199,27.85,29.865,17.239,29.865,8.037c0-0.302-0.006-0.602-0.019-0.901
			c1.295-0.965,2.419-2.175,3.308-3.557c-1.189,0.536-2.467,0.892-3.807,1.041c1.367-0.842,2.419-2.19,2.914-3.806
			C30.98,1.59,29.563,2.147,28.053,2.437z"/>
	</g>
</g>
</svg>
