<?xml version="1.0" encoding="utf-8"?>
<!-- Generator: Adobe Illustrator 16.0.0, SVG Export Plug-In . SVG Version: 6.00 Build 0)  -->
<!DOCTYPE svg PUBLIC "-//W3C//DTD SVG 1.1//EN" "http://www.w3.org/Graphics/SVG/1.1/DTD/svg11.dtd">
<svg version="1.1" id="Layer_1" xmlns:sketch="http://www.bohemiancoding.com/sketch/ns"
	 xmlns="http://www.w3.org/2000/svg" xmlns:xlink="http://www.w3.org/1999/xlink" x="0px" y="0px" width="45px" height="45px"
	 viewBox="7.5 7.5 45 45" enable-background="new 7.5 7.5 45 45" xml:space="preserve">
<title></title>
<desc></desc>
<g id="black">
	<g id="slice" transform="translate(-500.000000, -100.000000)">
	</g>
	<g id="youtube" transform="translate(10.000000, 16.000000)">
		<path id="Fill-195" fill="#FFFFFF" d="M38.791,6.762c0,0-0.375-2.643-1.524-3.807c-1.458-1.527-3.093-1.535-3.843-1.624
			c-5.365-0.388-13.416-0.388-13.416-0.388h-0.017c0,0-8.049,0-13.416,0.388C5.826,1.42,4.192,1.428,2.733,2.955
			c-1.15,1.164-1.524,3.807-1.524,3.807s-0.384,3.103-0.384,6.207v2.91c0,3.103,0.384,6.206,0.384,6.206s0.374,2.643,1.524,3.807
			c1.458,1.527,3.375,1.479,4.228,1.639C10.03,27.824,20,27.915,20,27.915s8.059-0.013,13.424-0.399
			c0.75-0.09,2.385-0.098,3.843-1.625c1.149-1.164,1.524-3.807,1.524-3.807s0.383-3.104,0.383-6.206v-2.91
			C39.174,9.865,38.791,6.762,38.791,6.762z M16.041,19.402L16.04,8.628l10.362,5.406L16.041,19.402z"/>
	</g>
</g>
</svg>
