<?xml version="1.0" encoding="utf-8"?>
<!-- Generator: Adobe Illustrator 25.4.1, SVG Export Plug-In . SVG Version: 6.00 Build 0)  -->
<svg version="1.1" id="Layer_1" xmlns="http://www.w3.org/2000/svg" xmlns:xlink="http://www.w3.org/1999/xlink" x="0px" y="0px"
	 viewBox="0 0 117 117" style="enable-background:new 0 0 117 117;" xml:space="preserve">
<style type="text/css">
	.st0{fill:none;stroke:#000000;stroke-miterlimit:10;}
	.st1{stroke:#000000;stroke-width:4;stroke-miterlimit:10;}
	.st2{fill:none;stroke:#000000;stroke-width:4;stroke-miterlimit:10;}
	.st3{fill:#FFFFFF;}
	.st4{fill:none;stroke:#000000;}
	.st5{fill:none;stroke:#000000;stroke-width:2;stroke-miterlimit:10;}
	.st6{fill:none;stroke:#3B51A2;stroke-width:4;stroke-miterlimit:10;}
	.st7{fill:none;stroke:#821618;stroke-width:2;stroke-miterlimit:10;}
	.st8{fill:#3B51A2;}
	.st9{fill:#FFFFFF;stroke:#FFFFFF;stroke-miterlimit:10;}
	.st10{fill:none;stroke:#12284C;stroke-width:4;stroke-miterlimit:10;}
	.st11{fill:#12284C;}
	.st12{fill:#821618;}
	.st13{fill:#490E67;}
	.st14{fill:#3DAE2B;}
	.st15{fill:none;stroke:#821618;stroke-width:6;stroke-miterlimit:10;}
	.st16{fill:none;stroke:#3DAE2B;stroke-width:6;stroke-miterlimit:10;}
</style>
<g>
	<path class="st14" d="M57.92,110.42c-27.96,0-50.71-22.75-50.71-50.71S29.96,9,57.92,9s50.71,22.75,50.71,50.71
		S85.88,110.42,57.92,110.42z M57.92,11.47c-26.6,0-48.23,21.64-48.23,48.23s21.64,48.23,48.23,48.23s48.23-21.64,48.23-48.23
		S84.52,11.47,57.92,11.47z"/>
	<circle class="st13" cx="57.92" cy="59.71" r="44.52"/>
	<g>
		<g>
			<path class="st3" d="M21.23,63.96V61.6c0.79-1.96,2.34-4.05,4.66-6.26l1.85-1.76c1.62-1.54,2.74-2.83,3.38-3.9
				c0.63-1.06,0.95-2.18,0.95-3.37c0-1.3-0.35-2.34-1.06-3.1c-0.71-0.77-1.66-1.15-2.87-1.15c-0.69,0-1.35,0.1-1.98,0.3
				c-0.63,0.2-1.22,0.51-1.79,0.93l-0.19,2.11h-2.56v-4.34c1.23-0.46,2.45-0.8,3.68-1.03c1.23-0.23,2.45-0.34,3.68-0.34
				c2.44,0,4.41,0.59,5.9,1.78s2.23,2.75,2.23,4.7c0,1.43-0.35,2.66-1.05,3.7c-0.7,1.04-1.96,2.21-3.79,3.5l-1.73,1.22
				c-2.83,1.98-4.32,3.79-4.47,5.42h10.95v3.95H21.23z"/>
			<path class="st3" d="M49.7,64.56c-2.74,0-4.96-1.14-6.65-3.43c-1.69-2.29-2.54-5.28-2.54-8.97c0-3.72,0.85-6.73,2.54-9.02
				c1.69-2.29,3.91-3.44,6.65-3.44c2.74,0,4.95,1.15,6.64,3.44c1.69,2.29,2.53,5.3,2.53,9.02c0,3.69-0.85,6.68-2.54,8.97
				C54.64,63.41,52.43,64.56,49.7,64.56z M49.69,62.19c1.38,0,2.42-0.84,3.11-2.52c0.69-1.68,1.03-4.19,1.03-7.54
				c0-3.36-0.35-5.88-1.05-7.55c-0.7-1.67-1.74-2.51-3.14-2.51c-1.36,0-2.39,0.84-3.07,2.51c-0.68,1.67-1.02,4.19-1.02,7.55
				c0,3.35,0.35,5.86,1.04,7.54C47.29,61.35,48.32,62.19,49.69,62.19z"/>
			<path class="st3" d="M61.38,63.96V61.6c0.79-1.96,2.34-4.05,4.66-6.26l1.85-1.76c1.62-1.54,2.74-2.83,3.38-3.9
				c0.63-1.06,0.95-2.18,0.95-3.37c0-1.3-0.35-2.34-1.06-3.1c-0.71-0.77-1.66-1.15-2.87-1.15c-0.69,0-1.35,0.1-1.98,0.3
				c-0.63,0.2-1.22,0.51-1.79,0.93l-0.19,2.11h-2.56v-4.34c1.23-0.46,2.45-0.8,3.68-1.03c1.23-0.23,2.45-0.34,3.68-0.34
				c2.44,0,4.41,0.59,5.9,1.78c1.49,1.19,2.23,2.75,2.23,4.7c0,1.43-0.35,2.66-1.05,3.7c-0.7,1.04-1.96,2.21-3.79,3.5l-1.73,1.22
				c-2.83,1.98-4.32,3.79-4.47,5.42h10.95v3.95H61.38z"/>
			<path class="st3" d="M92.62,40.07V61.6h3.95v2.37H83.91V61.6h3.95V43.43l-3.95,0.79v-2.37L92.62,40.07z"/>
		</g>
		<g>
			<path class="st3" d="M47.24,78.5v5.36h1.45v1.45h-5.91v-1.45h1.45V72.3h-1.45v-1.45h5.91v1.45h-1.45v4.76h5.83V72.3h-1.45v-1.45
				h5.91v1.45h-1.45v11.57h1.45v1.45h-5.91v-1.45h1.45V78.5H47.24z"/>
			<path class="st3" d="M62.19,85.5l-3.25-13.2H58.1v-1.45h5.16v1.45h-1.44l2.05,8.27l2.79-9.59h1.69l2.67,9.83l2.44-8.5H72v-1.45
				h3.87v1.45h-0.85l-3.78,13.2h-1.72l-2.74-10l-2.91,10H62.19z"/>
		</g>
	</g>
</g>
</svg>
