<svg xmlns="http://www.w3.org/2000/svg" width="24.753" height="24.753" viewBox="0 0 24.753 24.753">
    <path id="prefix__linkedin" d="M12.376 0a12.376 12.376 0 1012.377 12.376A12.378 12.378 0 0012.376 0zM8.78 18.71H5.766V9.641H8.78zM7.273 8.4h-.02a1.571 1.571 0 11.04-3.133 1.572 1.572 0 11-.02 3.133zm12.376 10.31h-3.014v-4.852c0-1.219-.436-2.051-1.527-2.051a1.65 1.65 0 00-1.546 1.1 2.064 2.064 0 00-.1.736v5.067h-3.014s.039-8.218 0-9.068h3.014v1.284a2.992 2.992 0 012.716-1.5c1.983 0 3.47 1.3 3.47 4.081zm0 0" style="fill:#fff"/>
</svg>
