<?xml version="1.0" encoding="UTF-8"?>
<svg width="482px" height="184px" viewBox="0 0 482 184" version="1.1" xmlns="http://www.w3.org/2000/svg" xmlns:xlink="http://www.w3.org/1999/xlink">
    <defs>
        <polygon id="path-1" points="0.06 0.91 205.506 0.91 205.506 184 0.06 184"></polygon>
    </defs>
    <g id="Page-1" stroke="none" stroke-width="1" fill="none" fill-rule="evenodd">
        <g id="Horangi-Logo_Full-Dark-Horizontal">
            <polyline id="Fill-1" fill="#CBCAC5" points="234.182 47.453 234.182 89.38 227.185 89.38 227.185 72.251 202.33 72.251 202.33 65.253 227.185 65.253 227.185 47.453 234.182 47.453"></polyline>
            <path d="M264.141,82.383 C265.966,82.383 267.726,82.019 269.42,81.294 C271.114,80.568 272.604,79.572 273.889,78.305 C275.174,77.038 276.198,75.558 276.961,73.864 C277.725,72.168 278.107,70.353 278.107,68.416 C278.107,66.554 277.743,64.776 277.018,63.081 C276.291,61.387 275.295,59.897 274.028,58.612 C272.763,57.328 271.282,56.303 269.587,55.539 C267.893,54.776 266.077,54.394 264.141,54.394 C262.277,54.394 260.5,54.758 258.806,55.484 C257.11,56.21 255.621,57.206 254.336,58.473 C253.051,59.739 252.027,61.228 251.264,62.942 C250.5,64.655 250.118,66.48 250.118,68.416 C250.118,70.316 250.481,72.094 251.207,73.751 C251.934,75.409 252.93,76.87 254.196,78.137 C255.463,79.404 256.942,80.409 258.638,81.154 C260.333,81.899 262.167,82.308 264.141,82.383 Z M264.113,47.397 C266.912,47.397 269.57,47.938 272.09,49.02 C274.608,50.103 276.838,51.586 278.779,53.47 C280.719,55.355 282.258,57.576 283.397,60.132 C284.535,62.688 285.104,65.441 285.104,68.388 C285.104,71.187 284.563,73.846 283.481,76.365 C282.398,78.884 280.915,81.114 279.031,83.054 C277.146,84.995 274.925,86.535 272.369,87.672 C269.813,88.811 267.061,89.38 264.113,89.38 C261.313,89.38 258.646,88.839 256.108,87.756 C253.569,86.675 251.341,85.182 249.419,83.278 C247.496,81.375 245.967,79.145 244.828,76.589 C243.689,74.033 243.121,71.299 243.121,68.388 C243.121,65.553 243.662,62.874 244.744,60.355 C245.826,57.836 247.31,55.625 249.195,53.722 C251.079,51.819 253.3,50.308 255.856,49.188 C258.412,48.068 261.164,47.472 264.113,47.397 L264.113,47.397 Z" id="Fill-2" fill="#CBCAC5"></path>
            <path d="M300.945,65.253 L314.171,65.253 C315.026,65.217 315.789,64.994 316.459,64.585 C317.054,64.251 317.593,63.713 318.076,62.971 C318.561,62.228 318.803,61.17 318.803,59.796 C318.803,58.459 318.561,57.42 318.076,56.678 C317.593,55.935 317.054,55.396 316.459,55.062 C315.789,54.655 315.026,54.432 314.171,54.394 L300.945,54.394 L300.945,65.253 Z M326.583,89.38 L318.803,89.38 L309.539,72.251 L300.945,72.251 L300.945,89.38 L293.948,89.38 L293.948,47.397 L314.156,47.397 C316.32,47.509 318.261,48.032 319.979,48.964 C320.687,49.375 321.396,49.879 322.105,50.475 C322.813,51.073 323.439,51.801 323.98,52.659 C324.521,53.517 324.96,54.534 325.296,55.709 C325.632,56.885 325.8,58.256 325.8,59.824 C325.8,62.362 325.389,64.442 324.568,66.065 C323.747,67.688 322.823,68.957 321.798,69.871 C320.771,70.787 319.801,71.411 318.887,71.747 C317.972,72.083 317.422,72.251 317.235,72.251 L326.583,89.38 L326.583,89.38 Z" id="Fill-3" fill="#CBCAC5"></path>
            <path d="M348.633,73.762 L358.708,73.762 L353.278,62.958 L348.633,73.762 Z M353.278,47.341 L374.326,89.38 L366.602,89.38 L361.843,80.871 L344.77,80.871 L340.796,89.38 L332.287,89.38 L353.278,47.341 L353.278,47.341 Z" id="Fill-4" fill="#CBCAC5"></path>
            <polyline id="Fill-5" fill="#CBCAC5" points="416.869 47.285 416.869 89.38 388.04 63.686 388.04 83.894 381.043 89.38 381.043 47.285 409.872 73.762 409.872 52.77 416.869 47.285"></polyline>
            <path d="M462.153,66.093 L462.153,83.237 C460.885,84.391 459.467,85.415 457.899,86.308 C456.556,87.09 454.933,87.798 453.029,88.431 C451.126,89.064 448.999,89.38 446.648,89.38 C443.886,89.38 441.246,88.829 438.728,87.728 C436.208,86.628 433.978,85.125 432.038,83.222 C430.097,81.319 428.548,79.09 427.392,76.533 C426.234,73.977 425.656,71.243 425.656,68.332 C425.656,65.609 426.207,62.986 427.308,60.467 C428.408,57.949 429.911,55.719 431.813,53.778 C433.717,51.838 435.946,50.289 438.503,49.132 C441.059,47.975 443.773,47.397 446.648,47.397 C449.969,47.397 452.908,48.022 455.465,49.272 C458.021,50.523 460.251,52.23 462.153,54.394 C462.153,54.432 461.874,54.655 461.314,55.066 C460.754,55.476 460.139,55.925 459.467,56.409 C458.684,56.969 457.769,57.604 456.724,58.312 C455.566,57.119 454.093,56.167 452.302,55.457 C450.511,54.749 448.626,54.394 446.648,54.394 C444.931,54.394 443.242,54.767 441.582,55.514 C439.921,56.26 438.428,57.258 437.104,58.508 C435.778,59.759 434.705,61.233 433.885,62.931 C433.063,64.629 432.653,66.429 432.653,68.332 C432.653,70.087 433.026,71.803 433.773,73.482 C434.52,75.162 435.526,76.664 436.796,77.988 C438.064,79.313 439.548,80.377 441.246,81.179 C442.944,81.982 444.745,82.383 446.648,82.383 C448.252,82.383 449.791,82.178 451.267,81.767 C452.74,81.357 454.074,80.779 455.269,80.032 L455.269,73.09 L446.648,73.09 L446.648,66.093 L462.153,66.093" id="Fill-6" fill="#CBCAC5"></path>
            <polyline id="Fill-7" fill="#CBCAC5" points="471.961 47.397 478.958 47.397 478.958 83.95 471.961 89.38 471.961 47.397"></polyline>
            <path d="M210.945,132.732 C209.221,132.732 207.598,132.396 206.075,131.724 C204.552,131.053 203.22,130.145 202.078,129.003 C200.937,127.862 200.029,126.53 199.357,125.006 C198.686,123.484 198.35,121.861 198.35,120.136 C198.35,118.412 198.68,116.783 199.341,115.249 C200.001,113.715 200.902,112.377 202.045,111.235 C203.187,110.093 204.524,109.186 206.059,108.514 C207.592,107.843 209.221,107.507 210.945,107.507 C213.969,107.507 216.555,108.403 218.704,110.194 L217.831,111.101 C216.823,110.317 215.76,109.757 214.641,109.421 C213.521,109.085 212.289,108.917 210.945,108.917 C209.378,108.917 207.917,109.209 206.563,109.791 C205.207,110.373 204.026,111.168 203.019,112.176 C202.011,113.183 201.216,114.37 200.634,115.736 C200.052,117.102 199.761,118.58 199.761,120.17 C199.761,121.737 200.052,123.199 200.634,124.553 C201.216,125.908 202.017,127.089 203.035,128.097 C204.054,129.104 205.241,129.893 206.596,130.465 C207.95,131.035 209.4,131.321 210.945,131.321 C212.199,131.321 213.375,131.165 214.473,130.851 C215.569,130.537 216.61,130.023 217.596,129.306 L218.57,130.179 C216.397,131.881 213.856,132.732 210.945,132.732" id="Fill-8" fill="#CBCAC5"></path>
            <polyline id="Fill-9" fill="#CBCAC5" points="231.394 132.732 231.394 120.842 221.351 107.507 222.997 107.507 232.065 119.565 241.168 107.507 242.747 107.507 232.737 120.842 232.737 132.732 231.394 132.732"></polyline>
            <path d="M256.87,131.321 C257.9,131.276 258.818,131.064 259.625,130.683 C259.961,130.527 260.297,130.325 260.633,130.078 C260.969,129.832 261.265,129.53 261.522,129.171 C261.779,128.813 261.987,128.393 262.144,127.912 C262.301,127.431 262.379,126.865 262.379,126.216 C262.379,125.589 262.301,125.029 262.144,124.536 C261.987,124.044 261.779,123.613 261.522,123.243 C261.265,122.873 260.969,122.566 260.633,122.319 C260.297,122.073 259.961,121.871 259.625,121.715 C258.818,121.334 257.9,121.121 256.87,121.076 L247.701,121.076 L247.701,131.321 L256.87,131.321 Z M247.701,119.666 L255.023,119.666 C255.964,119.554 256.804,119.296 257.542,118.893 C257.855,118.714 258.169,118.496 258.482,118.238 C258.796,117.981 259.07,117.667 259.306,117.298 C259.541,116.929 259.73,116.497 259.877,116.005 C260.022,115.513 260.095,114.952 260.095,114.325 C260.095,113.631 260.022,113.027 259.877,112.512 C259.73,111.996 259.541,111.549 259.306,111.168 C259.07,110.787 258.796,110.468 258.482,110.211 C258.169,109.953 257.855,109.735 257.542,109.556 C256.804,109.153 255.964,108.94 255.023,108.917 L247.701,108.917 L247.701,119.666 Z M258.113,119.901 C259.166,120.058 260.106,120.394 260.935,120.909 C261.293,121.133 261.64,121.401 261.976,121.715 C262.312,122.029 262.614,122.398 262.883,122.823 C263.151,123.249 263.364,123.742 263.521,124.301 C263.678,124.861 263.756,125.499 263.756,126.216 C263.756,127.29 263.577,128.203 263.219,128.953 C262.86,129.703 262.418,130.319 261.892,130.801 C261.365,131.282 260.806,131.652 260.213,131.909 C259.619,132.166 259.082,132.357 258.601,132.48 C258.118,132.603 257.749,132.676 257.492,132.698 C257.234,132.721 257.184,132.732 257.341,132.732 L246.29,132.732 L246.29,107.507 L255.023,107.507 C256.21,107.574 257.273,107.854 258.214,108.347 C258.617,108.548 259.009,108.817 259.39,109.153 C259.771,109.489 260.111,109.897 260.414,110.379 C260.717,110.86 260.963,111.426 261.153,112.075 C261.343,112.724 261.438,113.474 261.438,114.325 C261.438,115.423 261.265,116.329 260.918,117.046 C260.57,117.763 260.185,118.334 259.759,118.759 C259.267,119.252 258.718,119.632 258.113,119.901 L258.113,119.901 Z" id="Fill-10" fill="#CBCAC5"></path>
            <polyline id="Fill-11" fill="#CBCAC5" points="284.318 107.507 284.318 108.917 270.313 108.917 270.313 119.632 282.438 119.632 282.438 121.11 270.313 121.076 270.313 131.321 284.318 131.321 284.318 132.732 268.901 132.732 268.901 107.507 284.318 107.507"></polyline>
            <path d="M290.6,119.666 L302.725,119.666 C303.688,119.621 304.538,119.397 305.277,118.994 C305.591,118.838 305.904,118.63 306.218,118.372 C306.531,118.116 306.806,117.796 307.041,117.415 C307.276,117.035 307.466,116.593 307.612,116.089 C307.757,115.585 307.83,114.997 307.83,114.325 C307.83,113.654 307.757,113.06 307.612,112.545 C307.466,112.03 307.276,111.582 307.041,111.201 C306.806,110.821 306.531,110.502 306.218,110.244 C305.904,109.987 305.591,109.769 305.277,109.589 C304.538,109.186 303.688,108.963 302.725,108.917 L290.6,108.917 L290.6,119.666 Z M289.188,107.507 L302.725,107.507 C303.934,107.574 305.02,107.854 305.982,108.347 C306.386,108.548 306.783,108.817 307.175,109.153 C307.566,109.489 307.914,109.897 308.217,110.379 C308.519,110.86 308.765,111.426 308.955,112.075 C309.146,112.724 309.241,113.474 309.241,114.325 C309.241,115.177 309.141,115.921 308.938,116.559 C308.737,117.197 308.469,117.757 308.133,118.238 C307.797,118.72 307.416,119.123 306.99,119.448 C306.564,119.772 306.14,120.035 305.714,120.237 C304.684,120.73 303.52,121.009 302.221,121.076 L308.334,132.732 L306.822,132.732 L300.709,121.076 L290.6,121.076 L290.6,132.732 L289.188,132.732 L289.188,107.507 L289.188,107.507 Z" id="Fill-12" fill="#CBCAC5"></path>
            <path d="M330.133,120.136 C330.871,120.338 331.549,120.578 332.165,120.858 C332.78,121.139 333.307,121.508 333.743,121.967 C334.18,122.426 334.521,123.003 334.768,123.697 C335.014,124.391 335.138,125.253 335.138,126.283 C335.138,127.38 334.907,128.343 334.449,129.171 C333.989,130 333.385,130.678 332.635,131.203 C331.885,131.73 331.028,132.122 330.065,132.379 C329.103,132.637 328.111,132.754 327.093,132.732 C326.073,132.71 325.071,132.558 324.087,132.278 C323.101,131.998 322.217,131.579 321.434,131.019 L322.374,130.078 C323.045,130.459 323.795,130.75 324.624,130.952 C325.452,131.153 326.287,131.265 327.126,131.287 C327.966,131.31 328.783,131.232 329.578,131.053 C330.373,130.873 331.084,130.582 331.711,130.179 C332.338,129.776 332.837,129.25 333.206,128.6 C333.575,127.951 333.76,127.179 333.76,126.283 C333.76,125.096 333.508,124.167 333.005,123.495 C332.501,122.823 331.851,122.291 331.057,121.899 C330.261,121.508 329.365,121.194 328.369,120.959 C327.373,120.724 326.382,120.45 325.396,120.136 C324.68,119.934 324.047,119.627 323.499,119.212 C322.95,118.798 322.485,118.317 322.104,117.768 C321.724,117.22 321.434,116.621 321.231,115.971 C321.03,115.322 320.93,114.65 320.93,113.956 C320.93,112.859 321.158,111.902 321.618,111.084 C322.076,110.267 322.682,109.589 323.432,109.052 C324.182,108.514 325.038,108.117 326.001,107.859 C326.964,107.602 327.949,107.485 328.957,107.507 C329.965,107.529 330.961,107.686 331.946,107.977 C332.932,108.268 333.815,108.682 334.6,109.22 L333.659,110.16 C332.987,109.78 332.243,109.483 331.426,109.27 C330.608,109.057 329.78,108.94 328.94,108.917 C328.101,108.895 327.283,108.973 326.488,109.153 C325.693,109.332 324.987,109.623 324.372,110.026 C323.756,110.429 323.264,110.955 322.895,111.604 C322.524,112.254 322.34,113.038 322.34,113.956 C322.34,115.165 322.563,116.105 323.012,116.777 C323.46,117.449 324.047,117.986 324.775,118.389 C325.503,118.792 326.331,119.112 327.261,119.347 C328.189,119.582 329.147,119.845 330.133,120.136" id="Fill-13" fill="#CBCAC5"></path>
            <polyline id="Fill-14" fill="#CBCAC5" points="355.089 107.507 355.089 108.917 341.083 108.917 341.083 119.632 353.208 119.632 353.208 121.11 341.083 121.076 341.083 131.321 355.089 131.321 355.089 132.732 339.672 132.732 339.672 107.507 355.089 107.507"></polyline>
            <path d="M370.499,132.732 C368.774,132.732 367.151,132.396 365.629,131.724 C364.105,131.053 362.773,130.145 361.632,129.003 C360.49,127.862 359.583,126.53 358.911,125.006 C358.239,123.484 357.903,121.861 357.903,120.136 C357.903,118.412 358.233,116.783 358.895,115.249 C359.555,113.715 360.456,112.377 361.599,111.235 C362.74,110.093 364.078,109.186 365.612,108.514 C367.146,107.843 368.774,107.507 370.499,107.507 C373.522,107.507 376.108,108.403 378.258,110.194 L377.385,111.101 C376.377,110.317 375.313,109.757 374.194,109.421 C373.074,109.085 371.843,108.917 370.499,108.917 C368.932,108.917 367.471,109.209 366.116,109.791 C364.761,110.373 363.58,111.168 362.572,112.176 C361.564,113.183 360.77,114.37 360.188,115.736 C359.605,117.102 359.314,118.58 359.314,120.17 C359.314,121.737 359.605,123.199 360.188,124.553 C360.77,125.908 361.57,127.089 362.589,128.097 C363.607,129.104 364.795,129.893 366.149,130.465 C367.504,131.035 368.954,131.321 370.499,131.321 C371.753,131.321 372.929,131.165 374.026,130.851 C375.123,130.537 376.164,130.023 377.149,129.306 L378.124,130.179 C375.951,131.881 373.41,132.732 370.499,132.732" id="Fill-15" fill="#CBCAC5"></path>
            <path d="M392.137,132.732 C390.256,132.732 388.722,132.441 387.535,131.858 C386.349,131.276 385.419,130.549 384.747,129.675 C384.075,128.802 383.61,127.845 383.354,126.804 C383.096,125.762 382.967,124.771 382.967,123.831 L382.967,107.507 L384.378,107.507 L384.378,123.831 C384.378,125.107 384.563,126.216 384.933,127.156 C385.302,128.097 385.822,128.875 386.494,129.491 C387.166,130.107 387.978,130.565 388.93,130.868 C389.881,131.17 390.95,131.321 392.137,131.321 C393.301,131.321 394.365,131.17 395.328,130.868 C396.29,130.565 397.108,130.101 397.78,129.473 C398.451,128.847 398.973,128.046 399.342,127.072 C399.711,126.098 399.896,124.939 399.896,123.596 L399.896,107.507 L401.307,107.507 L401.307,123.831 C401.307,124.771 401.178,125.762 400.92,126.804 C400.663,127.845 400.198,128.802 399.526,129.675 C398.854,130.549 397.925,131.276 396.738,131.858 C395.552,132.441 394.018,132.732 392.137,132.732" id="Fill-16" fill="#CBCAC5"></path>
            <path d="M408.924,119.666 L421.049,119.666 C422.012,119.621 422.862,119.397 423.602,118.994 C423.915,118.838 424.229,118.63 424.542,118.372 C424.855,118.116 425.13,117.796 425.365,117.415 C425.601,117.035 425.79,116.593 425.937,116.089 C426.081,115.585 426.154,114.997 426.154,114.325 C426.154,113.654 426.081,113.06 425.937,112.545 C425.79,112.03 425.601,111.582 425.365,111.201 C425.13,110.821 424.855,110.502 424.542,110.244 C424.229,109.987 423.915,109.769 423.602,109.589 C422.862,109.186 422.012,108.963 421.049,108.917 L408.924,108.917 L408.924,119.666 Z M407.513,107.507 L421.049,107.507 C422.258,107.574 423.344,107.854 424.307,108.347 C424.71,108.548 425.107,108.817 425.499,109.153 C425.891,109.489 426.238,109.897 426.541,110.379 C426.843,110.86 427.089,111.426 427.279,112.075 C427.47,112.724 427.565,113.474 427.565,114.325 C427.565,115.177 427.465,115.921 427.263,116.559 C427.062,117.197 426.793,117.757 426.457,118.238 C426.121,118.72 425.74,119.123 425.314,119.448 C424.889,119.772 424.464,120.035 424.038,120.237 C423.008,120.73 421.844,121.009 420.545,121.076 L426.658,132.732 L425.146,132.732 L419.033,121.076 L408.924,121.076 L408.924,132.732 L407.513,132.732 L407.513,107.507 L407.513,107.507 Z" id="Fill-17" fill="#CBCAC5"></path>
            <polygon id="Fill-18" fill="#CBCAC5" points="432.792 132.732 434.169 132.732 434.169 107.507 432.792 107.507"></polygon>
            <polyline id="Fill-19" fill="#CBCAC5" points="447.026 108.917 437.487 108.917 437.487 107.507 457.977 107.507 457.977 108.917 448.437 108.917 448.437 132.732 447.026 132.732 447.026 108.917"></polyline>
            <polyline id="Fill-20" fill="#CBCAC5" points="469.994 132.732 469.994 120.842 459.951 107.507 461.598 107.507 470.666 119.565 479.769 107.507 481.348 107.507 471.338 120.842 471.338 132.732 469.994 132.732"></polyline>
            <g id="Group-25">
                <mask id="mask-2" fill="white">
                    <use xlink:href="#path-1"></use>
                </mask>
                <g id="Clip-22"></g>
                <polygon id="Fill-21" fill="#CBCAC5" mask="url(#mask-2)" points="198.559 89.38 205.506 89.38 205.506 47.554 198.559 47.554"></polygon>
                <path d="M7.455,129.726 L87.01,175.454 L166.566,129.726 L166.566,55.184 L87.01,9.456 L7.455,55.184 L7.455,129.726 Z M87.01,184 L0.021,133.999 L0.021,50.912 L87.01,0.91 L174,50.912 L174,133.999 L87.01,184 L87.01,184 Z" id="Fill-23" fill="#B56C36" mask="url(#mask-2)"></path>
                <polyline id="Fill-24" fill="#B56C36" mask="url(#mask-2)" points="76.778 96.444 39.829 96.556 40.081 89.248 51.702 89.246 0 56.799 0 7.327 36.301 32.675 31.857 38.655 7 21.405 7 52.768 76.778 96.444"></polyline>
            </g>
            <polyline id="Fill-26" fill="#B56C36" points="96.706 96.446 166 52.766 166 21.337 141.445 38.473 137.429 32.459 174 7.395 174 56.801 122.625 89.246 133.857 89.248 133.878 96.556 96.706 96.446"></polyline>
            <polyline id="Fill-27" fill="#B56C36" points="74.893 119.91 100.46 119.91 87.597 127.28 74.893 119.91"></polyline>
            <path d="M83.631,121.91 L87.603,124.215 L91.627,121.91 L83.631,121.91 Z M87.59,129.345 L66.155,116.91 L109.293,116.91 L87.59,129.345 L87.59,129.345 Z" id="Fill-28" fill="#B56C36"></path>
            <polyline id="Fill-29" fill="#B56C36" points="86.921 29.943 47.816 52.533 54.828 56.939 86.915 38.622 118.645 56.787 125.635 52.373 86.921 29.943"></polyline>
            <polyline id="Fill-30" fill="#B56C36" points="65.623 63.722 72.635 68.128 86.907 59.888 100.95 67.96 107.993 63.513 86.808 51.51 65.623 63.722"></polyline>
            <path d="M88,146.91 L88,126.91" id="Fill-31" fill="#B56C36"></path>
            <polygon id="Fill-32" fill="#B56C36" points="84 146.91 91 146.91 91 126.91 84 126.91"></polygon>
            <polyline id="Fill-33" fill="#B56C36" points="22.287 142.789 18.399 136.482 41.477 122.383 55.689 122.143 22.287 142.789"></polyline>
            <polyline id="Fill-34" fill="#B56C36" points="4.891 136.36 1.386 129.733 13.679 122.383 27.892 122.143 4.891 136.36"></polyline>
            <polyline id="Fill-35" fill="#B56C36" points="151.36 142.789 155.248 136.482 132.171 122.383 117.958 122.143 151.36 142.789"></polyline>
            <polyline id="Fill-36" fill="#B56C36" points="165.349 134.578 172.559 130.224 159.444 122.383 145.231 122.143 165.349 134.578"></polyline>
            <polyline id="Fill-37" fill="#B56C36" points="112.033 162.388 87.61 148.35 61.281 163.483 55.316 158.367 87.61 139.804 120.014 158.43 112.033 162.388"></polyline>
        </g>
    </g>
</svg>
