<?xml version="1.0" encoding="UTF-8"?>
<svg width="174px" height="184px" viewBox="0 0 174 184" version="1.1" xmlns="http://www.w3.org/2000/svg" xmlns:xlink="http://www.w3.org/1999/xlink">
    <g id="Page-1" stroke="none" stroke-width="1" fill="none" fill-rule="evenodd">
        <g id="Horangi-Logo_Faceonly-Black" fill="#FFFFFF">
            <path d="M56.2992783,157.801782 L84,141.878563 L84,127.262831 L66.155,116.91 L109.293,116.91 L91,127.390716 L91,141.753106 L118.320881,157.456816 L147.736209,140.549177 L117.957,122.143 L132.17,122.383 L155.036714,136.352919 L161.867984,132.426373 L145.231,122.143 L159.443,122.383 L166.566,126.641268 L166.566,61.4957238 L122.624,89.246 L133.858,89.248 L133.877,96.556 L96.706,96.446 L164.263558,53.8605793 L87.01,9.456 L9.22946157,54.1634823 L76.778,96.444 L39.829,96.556 L40.081,89.248 L51.702,89.246 L7.454,61.476961 L7.454,126.104935 L13.679,122.383 L27.892,122.143 L11.6872362,132.159222 L18.791102,136.242454 L41.477,122.383 L55.69,122.143 L26.0905219,140.438088 L56.2992783,157.801782 L56.2992783,157.801782 Z M63.7321391,162.074116 L87.01,175.454 L110.886884,161.729804 L87.609,148.35 L63.7321391,162.074116 L63.7321391,162.074116 Z M174,7.395 L174,133.999 L87.01,184 L0.021,133.999 L0.021,56.8121791 L7.10542736e-15,56.799 L7.10542736e-15,7.327 L34.2453215,31.2395756 L87.01,0.91 L139.466391,31.062023 L174,7.395 Z M166,46.3135864 L166,21.337 L146.374558,35.032849 L166,46.3135864 L166,46.3135864 Z M7,46.9004128 L27.0944661,35.3499467 L7,21.405 L7,46.9004128 L7,46.9004128 Z M86.921,29.943 L125.635,52.373 L118.645,56.787 L86.915,38.622 L54.828,56.939 L47.816,52.533 L86.921,29.943 Z M65.623,63.722 L86.808,51.51 L107.992,63.513 L100.95,67.96 L86.907,59.888 L72.635,68.128 L65.623,63.722 Z" id="Shape"></path>
        </g>
    </g>
</svg>
