<svg xmlns="http://www.w3.org/2000/svg" id="prefix__facebook" width="24.753" height="24.753" viewBox="0 0 24.753 24.753">
    <defs>
        <style>
            .prefix__cls-1{fill:#fff}
        </style>
    </defs>
    <path id="prefix__Path_65" d="M291.166 508.668q-.155.025-.31.046.155-.021.31-.046zm0 0" class="prefix__cls-1" data-name="Path 65" transform="translate(-276.794 -484.076)"/>
    <path id="prefix__Path_66" d="M299.488 507.793l-.148.026zm0 0" class="prefix__cls-1" data-name="Path 66" transform="translate(-284.868 -483.243)"/>
    <path id="prefix__Path_67" d="M277.973 510.34q-.181.02-.364.036.183-.016.364-.036zm0 0" class="prefix__cls-1" data-name="Path 67" transform="translate(-264.188 -485.667)"/>
    <path id="prefix__Path_68" d="M286.62 509.738l-.174.022zm0 0" class="prefix__cls-1" data-name="Path 68" transform="translate(-272.597 -485.095)"/>
    <path id="prefix__Path_69" d="M306.795 506.41l-.131.027zm0 0" class="prefix__cls-1" data-name="Path 69" transform="translate(-291.838 -481.927)"/>
    <path id="prefix__Path_70" d="M324.59 502.113l-.105.029zm0 0" class="prefix__cls-1" data-name="Path 70" transform="translate(-308.797 -477.838)"/>
    <path id="prefix__Path_71" d="M319.173 503.543l-.115.03zm0 0" class="prefix__cls-1" data-name="Path 71" transform="translate(-303.634 -479.199)"/>
    <path id="prefix__Path_72" d="M312.188 505.254l-.122.027zm0 0" class="prefix__cls-1" data-name="Path 72" transform="translate(-296.979 -480.827)"/>
    <path id="prefix__Path_73" d="M273.676 511.09l-.2.015zm0 0" class="prefix__cls-1" data-name="Path 73" transform="translate(-260.259 -486.381)"/>
    <path id="prefix__Path_74" d="M24.753 12.376a12.376 12.376 0 10-12.377 12.377h.218v-9.637H9.935v-3.1h2.659v-2.28a3.722 3.722 0 013.974-4.084 21.888 21.888 0 012.384.122v2.764h-1.627c-1.283 0-1.532.61-1.532 1.5v1.974h3.069l-.4 3.1h-2.669v9.159a12.383 12.383 0 008.96-11.895zm0 0" class="prefix__cls-1" data-name="Path 74"/>
    <path id="prefix__Path_75" d="M265.279 511.43q-.193.012-.388.019.194-.007.388-.019zm0 0" class="prefix__cls-1" data-name="Path 75" transform="translate(-252.084 -486.704)"/>
    <path id="prefix__Path_76" d="M260.709 511.836l-.205.005zm0 0" class="prefix__cls-1" data-name="Path 76" transform="translate(-247.91 -487.091)"/>
</svg>
